# AST/ASF file generated using VICON BodyLanguage
# -----------------------------------------------
:version 1.10
:name VICON
:units
  mass 1.0
  length 0.45
  angle deg
:documentation
   .ast/.asf automatically generated from VICON data using
   VICON BodyBuilder and BodyLanguage model FoxedUp or BRILLIANT.MOD
:root
   order TX TY TZ RX RY RZ
   axis XYZ
   position 0 0 0  
   orientation 0 0 0 
:bonedata
  begin
     id 1 
     name lhipjoint
     direction 0.64773 -0.699417 0.302095 
     length 2.48597 
     axis 0 0 0  XYZ
  end
  begin
     id 2 
     name lfemur
     direction 0.34202 -0.939693 0  
     length 6.71947  
     axis 0 0 20  XYZ
    dof rx ry rz
    limits (-160.0 20.0)
           (-70.0 70.0)
           (-60.0 70.0)
  end
  begin
     id 3 
     name ltibia
     direction 0.34202 -0.939693 0   
     length 8.08777   
     axis 0 0 20   XYZ
    dof rx
    limits (-10.0 170.0)
  end
  begin
     id 4 
     name lfoot
     direction 0.0808503 -0.222134 0.971658   
     length 2.08264   
     axis -90 7.62852e-016 20   XYZ
    dof rx rz
    limits (-45.0 90.0)
           (-70.0 20.0)
  end
  begin
     id 5 
     name ltoes
     direction 1.53502e-011 -4.22007e-011 1   
     length 1.04662   
     axis -90 7.62852e-016 20   XYZ
    dof rx
    limits (-90.0 20.0)
  end
  begin
     id 6 
     name rhipjoint
     direction -0.610924 -0.726792 0.313919   
     length 2.39233  
     axis 0 0 0  XYZ 
  end
  begin
     id 7 
     name rfemur
     direction -0.34202 -0.939693 0   
     length 6.96955   
     axis 0 0 -20   XYZ
    dof rx ry rz
    limits (-160.0 20.0)
           (-70.0 70.0)
           (-70.0 60.0)
  end
  begin
     id 8 
     name rtibia
     direction -0.34202 -0.939693 0   
     length 8.19584   
     axis 0 0 -20   XYZ
    dof rx
    limits (-10.0 170.0)
 end
 begin
     id 9 
     name rfoot
     direction -0.077777 -0.213691 0.9738   
     length 2.07539  
     axis -90 -7.62852e-016 -20   XYZ
    dof rx rz
    limits (-45.0 90.0)
           (-20.0 70.0)
  end
  begin
     id 10 
     name rtoes
     direction -1.53558e-011 -4.22006e-011 1   
     length 1.04381   
     axis -90 -7.62852e-016 -20   XYZ
    dof rx
    limits (-90.0 20.0)
  end
  begin
     id 11 
     name lowerback
     direction -0.00971646 0.996074 0.0879841   
     length 1.67643   
     axis 0 0 0   XYZ
    dof rx ry rz
    limits (-20.0 45.0)
           (-30.0 30.0)
           (-30.0 30.0)
  end
  begin
     id 12 
     name upperback
     direction 0.0127391 0.991676 0.128127   
     length 1.63741   
     axis 0 0 0   XYZ
    dof rx ry rz
    limits (-20.0 45.0)
           (-30.0 30.0)
           (-30.0 30.0)
  end
  begin
     id 13 
     name thorax
     direction 0.0167583 0.996049 0.0872067   
     length 1.65931   
     axis 0 0 0   XYZ
    dof rx ry rz
    limits (-20.0 45.0)
           (-30.0 30.0)
           (-30.0 30.0)
  end
  begin
     id 14 
     name lowerneck
     direction -0.0317829 0.998312 0.0486079   
     length 1.79021   
     axis 0 0 0   XYZ
    dof rx ry rz
    limits (-20.0 45.0)
           (-30.0 30.0)
           (-30.0 30.0)
  end
  begin
     id 15 
     name upperneck
     direction 0.0896851 0.972452 -0.215159   
     length 1.78797   
     axis 0 0 0   XYZ
    dof rx ry rz
    limits (-20.0 45.0)
           (-30.0 30.0)
           (-30.0 30.0)
  end
  begin
     id 16
     name head
     direction 0.0310949 0.996503 -0.0775582  
     length 1.81549  
     axis 0 0 0   XYZ
    dof rx ry rz
    limits (-20.0 45.0)
           (-30.0 30.0)
           (-30.0 30.0)
  end
  begin
     id 17 
     name lclavicle
     direction 0.853638 0.502051 -0.138733  
     length 3.31627  
     axis 0 0 0   XYZ
    dof ry rz
    limits (-20.0 10.0)
           (0.0 20.0)
  end
  begin
     id 18 
     name lhumerus
     direction 1 -4.48962e-011 -1.41788e-018   
     length 5.54893   
     axis 180 -30 -90   XYZ
    dof rx ry rz
    limits (-60.0 90.0)
           (-90.0 90.0)
           (-90.0 90.0)
  end
  begin
     id 19
     name lradius
     direction 1 -4.48962e-011 -4.95754e-027   
     length 3.02898   
     axis 180 -30 -90   XYZ
    dof rx
    limits (-10.0 170.0)
  end
  begin
     id 20
     name lwrist
     direction 1 -4.48952e-011 -1.03764e-026   
     length 1.51449   
     axis 9.09556e-015 90 90   XYZ
    dof ry
    limits (-180.0 0.0)
 end
  begin
     id 21 
     name lhand
     direction 1 -4.4902e-011 -2.07528e-026   
     length 0.640951   
     axis 1.3242e-014 90 90   XYZ
    dof rx rz
    limits (-90.0 90.0)
           (-45.0 45.0)
  end
  begin
     id 22 
     name lfingers
     direction 1 -4.49014e-011 -4.15056e-026   
     length 0.516751   
     axis 2.64841e-014 90 90   XYZ
    dof rx
    limits (0.0 90.0)
  end
  begin
     id 23
     name lthumb
     direction 0.707107 -6.35008e-011 0.707107   
     length 0.741954   
     axis -90 45 2.85299e-015   XYZ
    dof rx rz
    limits (-45.0 45.0)
           (-45.0 45.0)
  end
  begin
     id 24 
     name rclavicle
     direction -0.888531 0.455324 -0.0565039   
     length 3.20126  
     axis 0 0 0   XYZ 
    dof ry rz
    limits (-10.0 20.0)
           (-20.0 0.0)
  end
  begin
     id 25 
     name rhumerus
     direction -1 -4.48946e-011 -8.98298e-028  
     length 5.3519   
     axis 180 30 90   XYZ
    dof rx ry rz
    limits (-90.0 60.0)
           (-90.0 90.0)
           (-90.0 90.0)
  end
  begin
     id 26 
     name rradius
     direction -1 -4.4899e-011 -3.18779e-027   
     length 3.02531   
     axis 180 30 90   XYZ
    dof rx
    limits (-10.0 170.0)
  end
  begin
     id 27 
     name rwrist
     direction -1 -4.4897e-011 -1.03764e-026   
     length 1.51266   
     axis 9.09556e-015 -90 -90   XYZ
    dof ry
    limits (-180.0 0.0)
  end
  begin
     id 28
     name rhand
     direction -1 -4.48941e-011 -2.07528e-026   
     length 0.78389   
     axis 1.3242e-014 -90 -90   XYZ
    dof rx rz
    limits (-90.0 90.0)
           (-45.0 45.0)
  end
  begin
     id 29
     name rfingers
     direction -1 -4.49012e-011 -4.15056e-026   
     length 0.631992   
     axis 2.64841e-014 -90 -90   XYZ
    dof rx
    limits (0.0 90.0)
  end
  begin
     id 30
     name rthumb
     direction -0.707107 -6.3496e-011 0.707107   
     length 0.907418   
     axis -90 -45 -2.85299e-015   XYZ
    dof rx rz
    limits (-45.0 45.0)
           (-45.0 45.0)
  end
:hierarchy
  begin
    root lhipjoint rhipjoint lowerback
    lhipjoint lfemur
    lfemur ltibia
    ltibia lfoot
    lfoot ltoes
    rhipjoint rfemur
    rfemur rtibia
    rtibia rfoot
    rfoot rtoes
    lowerback upperback
    upperback thorax
    thorax lowerneck lclavicle rclavicle
    lowerneck upperneck
    upperneck head
    lclavicle lhumerus
    lhumerus lradius
    lradius lwrist
    lwrist lhand lthumb
    lhand lfingers
    rclavicle rhumerus
    rhumerus rradius
    rradius rwrist
    rwrist rhand rthumb
    rhand rfingers
  end

#!OML:ASF E:\Style3\Style3.ASF
:FULLY-SPECIFIED
:DEGREES
354
root 1.10568 17.7304 0.663228 -7.37682 81.4198 -24.0521
lowerback -11.8683 -1.12737 -0.700169
upperback -14.7319 -0.315928 2.55623
thorax -9.14452 0.504299 3.05482
lowerneck -14.2175 1.54887 -1.86921
upperneck 14.2335 0.89646 10.4112
head 6.6285 1.29179 3.77271
rclavicle 4.77083e-015 -8.94531e-015
rhumerus 23.0612 -37.8365 -18.2148
rradius 84.4012
rwrist -38.2129
rhand -29.6265 23.829
rfingers 7.12502
rthumb -2.95679 -6.13023
lclavicle 4.77083e-015 -8.94531e-015
lhumerus 32.0945 36.3285 25.7563
lradius 84.601
lwrist 54.6138
lhand -21.9834 24.2351
lfingers 7.12502
lthumb 4.42484 54.1688
rfemur -13.6594 11.2112 20.2296
rtibia 13.0947
rfoot -14.6607 -14.9687
rtoes -18.5588
lfemur -2.7127 -14.8235 -13.61
ltibia -1.27222e-014
lfoot -16.7158 28.9789
ltoes -6.41403
355
root 1.09246 17.7328 0.662709 -6.95192 81.4245 -23.4796
lowerback -11.9156 -1.08921 -0.847958
upperback -14.6686 -0.272613 2.43525
thorax -9.04496 0.527689 3.00818
lowerneck -13.9673 1.48131 -1.85748
upperneck 14.3661 0.790665 10.4655
head 6.63439 1.24641 3.77765
rclavicle -2.18663e-015 2.80286e-014
rhumerus 23.218 -35.6386 -18.0803
rradius 87.4316
rwrist -38.3598
rhand -30.0925 23.8326
rfingers 7.12502
rthumb -3.40679 -6.1199
lclavicle -2.18663e-015 2.80286e-014
lhumerus 33.017 33.6439 25.3617
lradius 86.4615
lwrist 54.1095
lhand -21.6333 23.1729
lfingers 7.12502
lthumb 4.76284 53.0994
rfemur -13.5737 11.0967 20.1748
rtibia 13.1487
rfoot -14.6886 -14.8906
rtoes -18.4899
lfemur -2.60751 -14.833 -13.7309
ltibia 1.43125e-014
lfoot -16.6308 28.9809
ltoes -6.31148
356
root 1.08158 17.7359 0.660462 -6.45076 81.4665 -22.8215
lowerback -11.9625 -1.07837 -0.999309
upperback -14.6029 -0.264411 2.33055
thorax -8.94097 0.534594 2.97994
lowerneck -13.8648 1.43372 -1.96496
upperneck 14.6521 0.707069 10.6264
head 6.71221 1.22257 3.84679
rclavicle -3.55328e-014 -3.07122e-014
rhumerus 23.7026 -33.388 -18.2773
rradius 90.2755
rwrist -38.4408
rhand -30.4597 23.7464
rfingers 7.12502
rthumb -3.76143 -6.20011
lclavicle -3.55328e-014 -3.07122e-014
lhumerus 33.9654 30.9501 24.98
lradius 88.2173
lwrist 53.1087
lhand -21.6507 21.8425
lfingers 7.12502
lthumb 4.74607 51.7693
rfemur -13.4547 10.9611 20.0924
rtibia 13.1948
rfoot -14.7516 -14.8169
rtoes -18.1497
lfemur -2.48861 -14.8812 -13.8834
ltibia -3.18055e-015
lfoot -16.5989 28.985
ltoes -6.29227
357
root 1.06701 17.7387 0.658332 -5.7979 81.5267 -21.9891
lowerback -11.9619 -1.09177 -1.16877
upperback -14.4995 -0.292538 2.24227
thorax -8.81748 0.522807 2.9783
lowerneck -13.8301 1.4187 -2.22132
upperneck 14.8649 0.676402 10.9515
head 6.77323 1.22957 3.99958
rclavicle -5.93869e-015 4.42296e-015
rhumerus 24.4091 -31.2352 -18.7474
rradius 93.0179
rwrist -38.4921
rhand -30.6831 23.7153
rfingers 7.12502
rthumb -3.9771 -6.22729
lclavicle -5.93869e-015 4.42296e-015
lhumerus 34.873 28.3578 24.5699
lradius 90.0115
lwrist 51.7778
lhand -21.5329 21.0062
lfingers 7.12502
lthumb 4.85982 50.9305
rfemur -13.3321 10.848 19.9816
rtibia 13.2441
rfoot -14.735 -14.7774
rtoes -18.1959
lfemur -2.37013 -14.9456 -14.054
ltibia 2.54444e-014
lfoot -16.5844 28.9777
ltoes -6.16377
358
root 1.04819 17.7408 0.654954 -5.90595 81.6516 -21.9897
lowerback -12.0224 -1.11551 -1.21568
upperback -14.3881 -0.338667 2.16298
thorax -8.64999 0.49068 2.91652
lowerneck -13.7121 1.41103 -2.32536
upperneck 14.9877 0.657898 11.106
head 6.79177 1.23082 4.06772
rclavicle -1.62382e-014 -1.27222e-014
rhumerus 25.141 -29.0548 -19.2448
rradius 95.6922
rwrist -38.4672
rhand -31.2112 23.644
rfingers 7.12502
rthumb -4.48709 -6.28845
lclavicle -1.62382e-014 -1.27222e-014
lhumerus 35.8242 25.7814 24.0786
lradius 91.8063
lwrist 50.4307
lhand -21.6837 20.4161
lfingers 7.12502
lthumb 4.71423 50.3436
rfemur -13.2835 10.7235 19.9765
rtibia 13.2798
rfoot -14.7135 -14.751
rtoes -18.1266
lfemur -2.35872 -15.0791 -14.0793
ltibia -4.77083e-015
lfoot -16.3156 29.0503
ltoes -6.59162
359
root 1.02701 17.7449 0.651264 -5.63375 81.8821 -21.574
lowerback -11.9895 -1.19323 -1.37756
upperback -14.2869 -0.452074 2.07039
thorax -8.54187 0.435262 2.90245
lowerneck -13.5205 1.39654 -2.38249
upperneck 15.0183 0.633818 11.2217
head 6.76877 1.22392 4.11057
rclavicle 8.82107e-015 -1.76421e-014
rhumerus 25.8472 -26.7075 -19.6584
rradius 98.3067
rwrist -38.4273
rhand -31.7972 23.7953
rfingers 7.12502
rthumb -5.05293 -6.12443
lclavicle 8.82107e-015 -1.76421e-014
lhumerus 36.8736 23.2262 23.5661
lradius 93.3483
lwrist 49.0898
lhand -22.1373 19.8791
lfingers 7.12502
lthumb 4.2762 49.8159
rfemur -13.179 10.6097 19.8798
rtibia 13.285
rfoot -14.7428 -14.8507
rtoes -18.027
lfemur -2.3374 -15.3167 -14.1981
ltibia -4.6118e-014
lfoot -16.0241 29.1564
ltoes -7.12752
360
root 1.00317 17.7495 0.648018 -5.94886 82.1571 -21.7931
lowerback -11.9153 -1.28673 -1.51904
upperback -14.2294 -0.579504 2.02746
thorax -8.50691 0.377692 2.9301
lowerneck -13.4223 1.37574 -2.40997
upperneck 15.1386 0.597838 11.2665
head 6.79227 1.21141 4.12845
rclavicle -5.6343e-015 3.11843e-015
rhumerus 26.6826 -24.2461 -20.2406
rradius 100.752
rwrist -38.1105
rhand -31.7801 24.2202
rfingers 7.12502
rthumb -5.03638 -5.69992
lclavicle -5.6343e-015 3.11843e-015
lhumerus 38.1058 20.6891 23.2747
lradius 94.6384
lwrist 47.7079
lhand -22.0116 19.5267
lfingers 7.12502
lthumb 4.39752 49.461
rfemur -13.1409 10.4997 19.8626
rtibia 13.3179
rfoot -14.6615 -15.0282
rtoes -18.2146
lfemur -2.40757 -15.5996 -14.1905
ltibia -4.77083e-015
lfoot -15.7325 29.2591
ltoes -7.54928
361
root 0.979104 17.7529 0.645307 -6.79166 82.4005 -22.5658
lowerback -11.9087 -1.33796 -1.55098
upperback -14.1663 -0.654535 1.98344
thorax -8.43204 0.336098 2.89694
lowerneck -13.1984 1.34429 -2.30841
upperneck 15.1689 0.564616 11.0835
head 6.76601 1.18085 4.04434
rclavicle 2.92633e-014 -5.66536e-015
rhumerus 27.6755 -21.6702 -20.9112
rradius 102.885
rwrist -37.1991
rhand -31.5364 24.5525
rfingers 7.12502
rthumb -4.80109 -5.3731
lclavicle 2.92633e-014 -5.66536e-015
lhumerus 39.5767 18.0767 23.3601
lradius 95.8665
lwrist 46.3876
lhand -21.664 19.362
lfingers 7.12502
lthumb 4.73322 49.2891
rfemur -13.1622 10.4302 19.9168
rtibia 13.4065
rfoot -14.6281 -15.2351
rtoes -18.5158
lfemur -2.49418 -15.8571 -14.1042
ltibia -1.43125e-014
lfoot -15.4186 29.427
ltoes -8.15901
362
root 0.950625 17.754 0.642374 -7.18147 82.6905 -22.8194
lowerback -11.7915 -1.41326 -1.69102
upperback -14.1064 -0.759185 1.93724
thorax -8.41951 0.289508 2.92183
lowerneck -12.8297 1.31959 -2.10402
upperneck 15.1237 0.557744 10.7085
head 6.68924 1.14581 3.87743
rclavicle 2.48232e-014 9.0944e-015
rhumerus 28.7923 -19.0096 -21.5402
rradius 104.668
rwrist -36.0253
rhand -31.3892 24.9314
rfingers 7.12502
rthumb -4.65893 -4.99738
lclavicle 2.48232e-014 9.0944e-015
lhumerus 41.1155 15.5687 23.4993
lradius 96.9265
lwrist 45.3462
lhand -21.2051 19.0976
lfingers 7.12502
lthumb 5.17628 49.0144
rfemur -13.1504 10.3506 19.8898
rtibia 13.5029
rfoot -14.6143 -15.4465
rtoes -18.8429
lfemur -2.55345 -16.1591 -14.1111
ltibia 2.54444e-014
lfoot -15.0927 29.5532
ltoes -8.87123
363
root 0.917716 17.7544 0.640505 -7.37791 83.0051 -22.9144
lowerback -11.6597 -1.51585 -1.92544
upperback -14.0285 -0.895577 1.93414
thorax -8.39118 0.237019 3.04468
lowerneck -12.9037 1.2513 -2.14936
upperneck 15.5699 0.465141 10.5633
head 6.85119 1.10136 3.84268
rclavicle 7.1314e-015 -5.2181e-015
rhumerus 30.0422 -16.4199 -22.1468
rradius 106.297
rwrist -34.7465
rhand -31.2808 25.0673
rfingers 7.12502
rthumb -4.55429 -4.86373
lclavicle 7.1314e-015 -5.2181e-015
lhumerus 42.5489 13.3527 23.5396
lradius 97.8166
lwrist 45.0328
lhand -20.4898 18.3562
lfingers 7.12502
lthumb 5.86692 48.255
rfemur -13.1993 10.3245 19.8252
rtibia 13.6168
rfoot -14.6771 -15.6804
rtoes -18.626
lfemur -2.67484 -16.4772 -14.1192
ltibia 1.27222e-014
lfoot -14.6571 29.6907
ltoes -9.59802
364
root 0.889078 17.758 0.637656 -8.05656 83.3053 -23.5323
lowerback -11.6253 -1.61932 -2.08349
upperback -13.9489 -1.03128 1.97474
thorax -8.30633 0.18031 3.17042
lowerneck -13.0672 1.14847 -2.34593
upperneck 16.2139 0.326219 10.5229
head 7.09538 1.04286 3.8709
rclavicle 7.0817e-016 4.9075e-015
rhumerus 31.4202 -13.7996 -22.7597
rradius 107.67
rwrist -33.4244
rhand -31.0053 25.5202
rfingers 7.12502
rthumb -4.28826 -4.41641
lclavicle 7.0817e-016 4.9075e-015
lhumerus 43.9711 11.2431 23.6241
lradius 98.5878
lwrist 45.1471
lhand -19.8538 17.9928
lfingers 7.12502
lthumb 6.48095 47.8737
rfemur -13.2724 10.1947 19.8214
rtibia 13.7336
rfoot -14.7034 -15.7659
rtoes -18.1296
lfemur -2.81264 -16.7855 -14.059
ltibia 3.18055e-015
lfoot -14.2639 29.7822
ltoes -10.1358
